<?xml version="1.0" encoding="UTF-8" standalone="no"?>
<!-- Created with Inkscape (http://www.inkscape.org/) -->

<svg
   width="512"
   height="512"
   viewBox="0 0 135.46666 135.46667"
   version="1.1"
   id="svg1"
   inkscape:export-filename="bitmap.png"
   inkscape:export-xdpi="48"
   inkscape:export-ydpi="48"
   inkscape:version="1.4.3 (0d15f75042, 2025-12-25)"
   sodipodi:docname="logo_qomc.svg"
   xml:space="preserve"
   xmlns:inkscape="http://www.inkscape.org/namespaces/inkscape"
   xmlns:sodipodi="http://sodipodi.sourceforge.net/DTD/sodipodi-0.dtd"
   xmlns="http://www.w3.org/2000/svg"
   xmlns:svg="http://www.w3.org/2000/svg"><sodipodi:namedview
     id="namedview1"
     pagecolor="#ffffff"
     bordercolor="#111111"
     borderopacity="1"
     inkscape:showpageshadow="0"
     inkscape:pageopacity="0"
     inkscape:pagecheckerboard="1"
     inkscape:deskcolor="#d1d1d1"
     inkscape:document-units="mm"
     inkscape:zoom="0.25795559"
     inkscape:cx="-62.026181"
     inkscape:cy="34.889727"
     inkscape:window-width="1920"
     inkscape:window-height="1002"
     inkscape:window-x="0"
     inkscape:window-y="0"
     inkscape:window-maximized="1"
     inkscape:current-layer="layer3" /><defs
     id="defs1"><inkscape:path-effect
       effect="powerclip"
       message=""
       id="path-effect5"
       is_visible="true"
       lpeversion="1"
       inverse="true"
       flatten="false"
       hide_clip="false" /><filter
       style="color-interpolation-filters:sRGB;"
       inkscape:label="Drop Shadow"
       id="filter9"
       x="-0.37682824"
       y="-0.37682824"
       width="1.7536565"
       height="1.7536565"><feFlood
         result="flood"
         in="SourceGraphic"
         flood-opacity="0.501961"
         flood-color="rgb(255,255,255)"
         id="feFlood8" /><feGaussianBlur
         result="blur"
         in="SourceGraphic"
         stdDeviation="7.000000"
         id="feGaussianBlur8" /><feOffset
         result="offset"
         in="blur"
         dx="0.000000"
         dy="0.000000"
         id="feOffset8" /><feComposite
         result="comp1"
         operator="in"
         in="flood"
         in2="offset"
         id="feComposite8" /><feComposite
         result="fbSourceGraphic"
         operator="over"
         in="SourceGraphic"
         in2="comp1"
         id="feComposite9" /><feColorMatrix
         result="fbSourceGraphicAlpha"
         in="fbSourceGraphic"
         values="0 0 0 -1 0 0 0 0 -1 0 0 0 0 -1 0 0 0 0 1 0"
         id="feColorMatrix11" /><feFlood
         id="feFlood11"
         result="flood"
         in="fbSourceGraphic"
         flood-opacity="0.200000"
         flood-color="rgb(255,255,255)" /><feGaussianBlur
         id="feGaussianBlur11"
         result="blur"
         in="fbSourceGraphic"
         stdDeviation="7.000000" /><feOffset
         id="feOffset11"
         result="offset"
         in="blur"
         dx="0.000000"
         dy="0.000000" /><feComposite
         id="feComposite11"
         result="comp1"
         operator="in"
         in="flood"
         in2="offset" /><feComposite
         id="feComposite12"
         result="comp2"
         operator="over"
         in="fbSourceGraphic"
         in2="comp1" /></filter><filter
       style="color-interpolation-filters:sRGB;"
       inkscape:label="Drop Shadow"
       id="filter18"
       x="-0.13458152"
       y="-0.13458152"
       width="1.269163"
       height="1.269163"><feFlood
         result="flood"
         in="SourceGraphic"
         flood-opacity="1.000000"
         flood-color="rgb(255,255,255)"
         id="feFlood17" /><feGaussianBlur
         result="blur"
         in="SourceGraphic"
         stdDeviation="5.000000"
         id="feGaussianBlur17" /><feOffset
         result="offset"
         in="blur"
         dx="0.000000"
         dy="0.000000"
         id="feOffset17" /><feComposite
         result="comp1"
         operator="in"
         in="offset"
         in2="flood"
         id="feComposite17" /><feComposite
         result="comp2"
         operator="over"
         in="SourceGraphic"
         in2="comp1"
         id="feComposite18" /></filter></defs><g
     inkscape:label="Layer 1"
     inkscape:groupmode="layer"
     id="layer1"><rect
       style="fill:#4d214b;stroke-width:10.5833;stroke-linecap:round;stroke-linejoin:round;paint-order:stroke fill markers;fill-opacity:1"
       id="rect1"
       width="135.46666"
       height="135.46666"
       x="0"
       y="0" /></g><g
     inkscape:groupmode="layer"
     id="layer2"
     inkscape:label="Layer 2"><path
       style="fill:#663d64;fill-opacity:1;stroke-width:10.5833;stroke-linecap:round;stroke-linejoin:round;paint-order:stroke fill markers"
       d="m 67.73333,67.73333 0.01568,110.38262 -110.216865,-43.44353 z"
       id="path1"
       sodipodi:nodetypes="cccc" /><path
       style="fill:#663d64;fill-opacity:1;stroke-width:10.5833;stroke-linecap:round;stroke-linejoin:round;paint-order:stroke fill markers"
       d="M 67.73333,67.73333 67.71765,-32.065958 188.51785,8.73174 Z"
       id="path1-5"
       sodipodi:nodetypes="cccc" /></g><g
     inkscape:groupmode="layer"
     id="layer3"
     inkscape:label="Layer 3"><path
       d="m 86.119194,32.219521 c -0.153554,-3e-6 -0.277245,0.238177 -0.277245,0.533993 v 8.211539 0.06768 c -2.519957,0.59752 -4.879976,1.626161 -6.996905,3.002857 l -0.115192,-0.115192 -6.162936,-6.162935 c -0.143806,-0.143807 -0.309505,-0.227075 -0.434419,-0.229738 -0.05679,-0.0012 -0.105011,0.01456 -0.138948,0.04849 l -6.035651,6.035 c -0.108574,0.108574 -0.02727,0.364519 0.181902,0.573693 l 6.058156,6.058155 c -1.628834,2.381241 -2.810567,5.088036 -3.420354,7.995577 H 58.629024 c -0.295816,0 -0.533993,0.123692 -0.533993,0.277247 v 8.535103 c 0,0.153554 0.238177,0.277246 0.533993,0.277246 h 10.148578 0.294491 c 0.529031,2.522438 1.488504,4.893907 2.796876,7.0327 l -0.181903,0.181901 -5.919532,5.919531 c -0.209172,0.209174 -0.290156,0.465117 -0.181576,0.573696 l 6.035324,6.03532 c 0.108574,0.108587 0.36452,0.02789 0.573693,-0.181246 l 5.759755,-5.760092 h 3.26e-4 c 2.316545,1.613724 4.947667,2.802033 7.776254,3.447363 v 8.100903 c 0,0.295815 0.123691,0.533993 0.277246,0.533993 h 1.050089 7.48534 1.05009 c 0.153551,0 0.277249,-0.238178 0.277249,-0.533993 v -8.100903 -0.0693 c 2.787235,-0.676191 5.376606,-1.880458 7.654896,-3.499425 l 0.12142,0.12137 5.76017,5.760085 c 0.20917,0.209148 0.46479,0.289826 0.57338,0.181247 l 6.03569,-6.03532 c 0.10861,-0.108587 0.0276,-0.364522 -0.18158,-0.573696 l -5.91959,-5.919532 -0.18191,-0.181901 c 1.3084,-2.138792 2.26787,-4.51026 2.7969,-7.032699 h 0.29451 10.14863 c 0.29582,0 0.534,-0.123692 0.534,-0.277247 v -8.535105 c 0,-0.153553 -0.23818,-0.277245 -0.534,-0.277245 h -10.14863 -0.29451 c -0.59479,-2.836335 -1.7339,-5.481454 -3.30129,-7.819851 v -3.26e-4 l 0.1754,-0.175395 6.05822,-6.058155 c 0.20916,-0.209173 0.29049,-0.465112 0.1819,-0.573692 l -6.03569,-6.035001 c -0.0339,-0.03393 -0.0822,-0.04974 -0.13894,-0.04847 -0.12489,0.0027 -0.29095,0.08593 -0.43475,0.229736 l -6.16271,6.162937 -0.11515,0.115192 C 100.64075,42.658911 98.280392,41.63027 95.760446,41.03275 v -0.06768 -8.211539 c 0,-0.295817 -0.123691,-0.533993 -0.277244,-0.533993 h -0.828158 -7.70727 z m 4.535199,20.963267 c 0.04902,0 0.09793,3.08e-4 0.146758,9.45e-4 0.04884,-6.93e-4 0.09774,-9.45e-4 0.146759,-9.45e-4 5.377921,0 9.60145,4.222562 9.60145,9.600486 0,5.377923 -4.223529,9.601134 -9.60145,9.601134 -0.04623,0 -0.09223,-1.25e-4 -0.138297,-0.0012 -0.0028,4.4e-5 -0.0056,-3.7e-5 -0.0084,0 -0.0033,-4.9e-5 -0.0067,5e-5 -0.01014,0 -0.04543,5.86e-4 -0.09107,0.0012 -0.13667,0.0012 -5.377923,0 -9.601138,-4.223211 -9.601138,-9.601134 0,-5.377924 4.223215,-9.600486 9.601138,-9.600486 z"
       style="fill:#ffcd00;fill-opacity:1;stroke-width:18.8436;paint-order:stroke fill markers"
       id="path7"
       sodipodi:nodetypes="sscccccscccccsssscccccccccccssccssccccccccccccssssccccccccccccccssccsscssscccssss" /><path
       style="font-size:92.833px;line-height:1;font-family:Minecraft;-inkscape-font-specification:Minecraft;font-feature-settings:'cv03', 'cv04', 'cv05', 'cv06', 'cv07', 'cv08', 'cv09', 'cv10';letter-spacing:0px;word-spacing:0px;fill:#ffffff;stroke-width:219.29;paint-order:stroke fill markers"
       d="m 46.851059,32.024667 v 9.2833 h 9.2833 v -9.2833 z m -9.2833,9.2833 v 18.5666 h 9.2833 v -18.5666 z m -9.2833,27.8499 h 9.2833 v -9.2833 h -9.2833 z m -9.2833,0 v 18.5666 h 9.2833 v -18.5666 z m -9.2833016,27.8499 h 9.2833016 v -9.2833 H 9.7178574 Z M 122.94671,99.124434 H 60.655195 v 9.283306 h 62.291515 z"
       id="text7"
       aria-label="/_"
       sodipodi:nodetypes="cccccccccccccccccccccccccccccc" /></g><g
     inkscape:groupmode="layer"
     id="layer4"
     inkscape:label="Layer 4" /></svg>
